REM DIRINDEX 1\8,1\2\11,1\3\12,1\3\14,1\5\15,1\5\16,1\6\17,1\6\18,1\4\19,1\4\20,1\4\21,1\4\22,1\7\23,1\7\24,1\7\25,1\2\9\26,1\2\9\27,1\2\10\28,1\2\10\29,1\2\10\30,1\2\10\31,1\2\10\32,1\3\13\33,1\3\13\34,1\3\13\35
REM DIRNAME cjc123,folder01,folder02,folder03,folder04,folder05,folder06,folder07,folder08,folder09,folder10,folder11,folder12,folder13,folder14,folder15,folder16,folder17,folder18,folder19,folder20,folder21,folder22,folder23,folder24,folder25,folder26,folder27,folder28,folder29,folder30,folder31,folder32,folder33,folder34
TITLE ""
FILE "1-19 019_UNIT2_SET5.mp3" MP3
  TRACK 01 AUDIO
    TITLE "11:cjc123_0975"
    INDEX 01 00:00:00
  TRACK 02 AUDIO
    TITLE "0:"
    INDEX 01 00:02:53
  TRACK 03 AUDIO
    TITLE "28:cjc123_0976"
    INDEX 01 00:03:35
  TRACK 04 AUDIO
    TITLE "0:"
    INDEX 01 00:04:56
  TRACK 05 AUDIO
    TITLE "29:cjc123_0977"
    INDEX 01 00:04:62
  TRACK 06 AUDIO
    TITLE "0:"
    INDEX 01 00:06:06
  TRACK 07 AUDIO
    TITLE "30:cjc123_0978"
    INDEX 01 00:06:14
  TRACK 08 AUDIO
    TITLE "0:"
    INDEX 01 00:07:27
  TRACK 09 AUDIO
    TITLE "31:cjc123_0979"
    INDEX 01 00:07:68
  TRACK 10 AUDIO
    TITLE "0:"
    INDEX 01 00:12:38
  TRACK 11 AUDIO
    TITLE "32:cjc123_0980"
    INDEX 01 00:13:06
  TRACK 12 AUDIO
    TITLE "0:"
    INDEX 01 00:17:72
  TRACK 13 AUDIO
    TITLE "28:cjc123_0981"
    INDEX 01 00:18:48
  TRACK 14 AUDIO
    TITLE "0:"
    INDEX 01 00:19:34
  TRACK 15 AUDIO
    TITLE "29:cjc123_0982"
    INDEX 01 00:19:65
  TRACK 16 AUDIO
    TITLE "0:"
    INDEX 01 00:21:04
  TRACK 17 AUDIO
    TITLE "30:cjc123_0983"
    INDEX 01 00:21:15
  TRACK 18 AUDIO
    TITLE "0:"
    INDEX 01 00:22:17
  TRACK 19 AUDIO
    TITLE "31:cjc123_0984"
    INDEX 01 00:22:66
  TRACK 20 AUDIO
    TITLE "0:"
    INDEX 01 00:26:56
  TRACK 21 AUDIO
    TITLE "32:cjc123_0985"
    INDEX 01 00:27:30
  TRACK 22 AUDIO
    TITLE "0:"
    INDEX 01 00:31:57
  TRACK 23 AUDIO
    TITLE "28:cjc123_0986"
    INDEX 01 00:32:33
  TRACK 24 AUDIO
    TITLE "0:"
    INDEX 01 00:33:52
  TRACK 25 AUDIO
    TITLE "29:cjc123_0987"
    INDEX 01 00:33:68
  TRACK 26 AUDIO
    TITLE "0:"
    INDEX 01 00:35:06
  TRACK 27 AUDIO
    TITLE "30:cjc123_0988"
    INDEX 01 00:35:21
  TRACK 28 AUDIO
    TITLE "0:"
    INDEX 01 00:36:29
  TRACK 29 AUDIO
    TITLE "31:cjc123_0989"
    INDEX 01 00:37:07
  TRACK 30 AUDIO
    TITLE "0:"
    INDEX 01 00:40:07
  TRACK 31 AUDIO
    TITLE "32:cjc123_0990"
    INDEX 01 00:40:36
  TRACK 32 AUDIO
    TITLE "0:"
    INDEX 01 00:43:56
  TRACK 33 AUDIO
    TITLE "28:cjc123_0991"
    INDEX 01 00:44:28
  TRACK 34 AUDIO
    TITLE "0:"
    INDEX 01 00:45:22
  TRACK 35 AUDIO
    TITLE "29:cjc123_0992"
    INDEX 01 00:45:37
  TRACK 36 AUDIO
    TITLE "0:"
    INDEX 01 00:46:70
  TRACK 37 AUDIO
    TITLE "30:cjc123_0993"
    INDEX 01 00:46:74
  TRACK 38 AUDIO
    TITLE "0:"
    INDEX 01 00:47:66
  TRACK 39 AUDIO
    TITLE "31:cjc123_0994"
    INDEX 01 00:48:40
  TRACK 40 AUDIO
    TITLE "0:"
    INDEX 01 00:51:65
  TRACK 41 AUDIO
    TITLE "32:cjc123_0995"
    INDEX 01 00:52:26
  TRACK 42 AUDIO
    TITLE "0:"
    INDEX 01 00:56:06
  TRACK 43 AUDIO
    TITLE "28:cjc123_0996"
    INDEX 01 00:56:53
  TRACK 44 AUDIO
    TITLE "0:"
    INDEX 01 00:57:72
  TRACK 45 AUDIO
    TITLE "29:cjc123_0997"
    INDEX 01 00:58:15
  TRACK 46 AUDIO
    TITLE "0:"
    INDEX 01 00:58:73
  TRACK 47 AUDIO
    TITLE "30:cjc123_0998"
    INDEX 01 00:59:26
  TRACK 48 AUDIO
    TITLE "0:"
    INDEX 01 01:00:43
  TRACK 49 AUDIO
    TITLE "31:cjc123_0999"
    INDEX 01 01:01:19
  TRACK 50 AUDIO
    TITLE "0:"
    INDEX 01 01:05:60
  TRACK 51 AUDIO
    TITLE "32:cjc123_1000"
    INDEX 01 01:06:24
  TRACK 52 AUDIO
    TITLE "0:"
    INDEX 01 01:11:17
  TRACK 53 AUDIO
    TITLE "28:cjc123_1001"
    INDEX 01 01:11:68
  TRACK 54 AUDIO
    TITLE "0:"
    INDEX 01 01:13:00
  TRACK 55 AUDIO
    TITLE "29:cjc123_1002"
    INDEX 01 01:13:18
  TRACK 56 AUDIO
    TITLE "0:"
    INDEX 01 01:14:06
  TRACK 57 AUDIO
    TITLE "30:cjc123_1003"
    INDEX 01 01:14:14
  TRACK 58 AUDIO
    TITLE "0:"
    INDEX 01 01:15:13
  TRACK 59 AUDIO
    TITLE "31:cjc123_1004"
    INDEX 01 01:15:66
  TRACK 60 AUDIO
    TITLE "0:"
    INDEX 01 01:19:27
  TRACK 61 AUDIO
    TITLE "32:cjc123_1005"
    INDEX 01 01:19:70
  TRACK 62 AUDIO
    TITLE "0:"
    INDEX 01 01:23:42
  TRACK 63 AUDIO
    TITLE "28:cjc123_1006"
    INDEX 01 01:23:71
  TRACK 64 AUDIO
    TITLE "0:"
    INDEX 01 01:24:73
  TRACK 65 AUDIO
    TITLE "29:cjc123_1007"
    INDEX 01 01:25:25
  TRACK 66 AUDIO
    TITLE "0:"
    INDEX 01 01:26:56
  TRACK 67 AUDIO
    TITLE "30:cjc123_1008"
    INDEX 01 01:26:66
  TRACK 68 AUDIO
    TITLE "0:"
    INDEX 01 01:27:73
  TRACK 69 AUDIO
    TITLE "31:cjc123_1009"
    INDEX 01 01:28:47
  TRACK 70 AUDIO
    TITLE "0:"
    INDEX 01 01:32:43
  TRACK 71 AUDIO
    TITLE "32:cjc123_1010"
    INDEX 01 01:33:11
  TRACK 72 AUDIO
    TITLE "0:"
    INDEX 01 01:36:39
  TRACK 73 AUDIO
    TITLE "28:cjc123_1011"
    INDEX 01 01:37:09
  TRACK 74 AUDIO
    TITLE "0:"
    INDEX 01 01:38:10
  TRACK 75 AUDIO
    TITLE "29:cjc123_1012"
    INDEX 01 01:38:30
  TRACK 76 AUDIO
    TITLE "0:"
    INDEX 01 01:39:63
  TRACK 77 AUDIO
    TITLE "30:cjc123_1013"
    INDEX 01 01:39:66
  TRACK 78 AUDIO
    TITLE "0:"
    INDEX 01 01:40:70
  TRACK 79 AUDIO
    TITLE "31:cjc123_1014"
    INDEX 01 01:41:44
  TRACK 80 AUDIO
    TITLE "0:"
    INDEX 01 01:45:24
  TRACK 81 AUDIO
    TITLE "32:cjc123_1015"
    INDEX 01 01:45:57
  TRACK 82 AUDIO
    TITLE "0:"
    INDEX 01 01:49:00
  TRACK 83 AUDIO
    TITLE "28:cjc123_1016"
    INDEX 01 01:49:45
  TRACK 84 AUDIO
    TITLE "0:"
    INDEX 01 01:50:58
  TRACK 85 AUDIO
    TITLE "29:cjc123_1017"
    INDEX 01 01:50:74
  TRACK 86 AUDIO
    TITLE "0:"
    INDEX 01 01:52:10
  TRACK 87 AUDIO
    TITLE "30:cjc123_1018"
    INDEX 01 01:52:20
  TRACK 88 AUDIO
    TITLE "0:"
    INDEX 01 01:53:27
  TRACK 89 AUDIO
    TITLE "31:cjc123_1019"
    INDEX 01 01:53:74
  TRACK 90 AUDIO
    TITLE "0:"
    INDEX 01 01:58:01
  TRACK 91 AUDIO
    TITLE "32:cjc123_1020"
    INDEX 01 01:58:30
  TRACK 92 AUDIO
    TITLE "0:"
    INDEX 01 02:02:64
  TRACK 93 AUDIO
    TITLE "28:cjc123_1021"
    INDEX 01 02:03:34
  TRACK 94 AUDIO
    TITLE "0:"
    INDEX 01 02:04:21
  TRACK 95 AUDIO
    TITLE "29:cjc123_1022"
    INDEX 01 02:04:47
  TRACK 96 AUDIO
    TITLE "0:"
    INDEX 01 02:06:14
  TRACK 97 AUDIO
    TITLE "30:cjc123_1023"
    INDEX 01 02:06:24
  TRACK 98 AUDIO
    TITLE "0:"
    INDEX 01 02:07:31
  TRACK 99 AUDIO
    TITLE "31:cjc123_1024"
    INDEX 01 02:08:09
  TRACK 100 AUDIO
    TITLE "0:"
    INDEX 01 02:11:35
  TRACK 101 AUDIO
    TITLE "32:cjc123_1025"
    INDEX 01 02:12:05
  TRACK 102 AUDIO
    TITLE "0:"
    INDEX 01 02:15:51
  TRACK 103 AUDIO
    TITLE "28:cjc123_1026"
    INDEX 01 02:16:26
  TRACK 104 AUDIO
    TITLE "0:"
    INDEX 01 02:17:34
  TRACK 105 AUDIO
    TITLE "29:cjc123_1027"
    INDEX 01 02:17:47
  TRACK 106 AUDIO
    TITLE "0:"
    INDEX 01 02:19:21
  TRACK 107 AUDIO
    TITLE "30:cjc123_1028"
    INDEX 01 02:19:29
  TRACK 108 AUDIO
    TITLE "0:"
    INDEX 01 02:20:38
  TRACK 109 AUDIO
    TITLE "31:cjc123_1029"
    INDEX 01 02:21:08
  TRACK 110 AUDIO
    TITLE "0:"
    INDEX 01 02:24:61
  TRACK 111 AUDIO
    TITLE "32:cjc123_1030"
    INDEX 01 02:25:21
  TRACK 112 AUDIO
    TITLE "0:"
    INDEX 01 02:28:69
  TRACK 113 AUDIO
    TITLE "28:cjc123_1031"
    INDEX 01 02:29:43
  TRACK 114 AUDIO
    TITLE "0:"
    INDEX 01 02:30:46
  TRACK 115 AUDIO
    TITLE "29:cjc123_1032"
    INDEX 01 02:30:64
  TRACK 116 AUDIO
    TITLE "0:"
    INDEX 01 02:32:31
  TRACK 117 AUDIO
    TITLE "30:cjc123_1033"
    INDEX 01 02:32:37
  TRACK 118 AUDIO
    TITLE "0:"
    INDEX 01 02:33:52
  TRACK 119 AUDIO
    TITLE "31:cjc123_1034"
    INDEX 01 02:34:24
  TRACK 120 AUDIO
    TITLE "0:"
    INDEX 01 02:37:33
  TRACK 121 AUDIO
    TITLE "32:cjc123_1035"
    INDEX 01 02:37:66
  TRACK 122 AUDIO
    TITLE "0:"
    INDEX 01 02:40:60
  TRACK 123 AUDIO
    TITLE "28:cjc123_1036"
    INDEX 01 02:41:36
  TRACK 124 AUDIO
    TITLE "0:"
    INDEX 01 02:42:32
  TRACK 125 AUDIO
    TITLE "29:cjc123_1037"
    INDEX 01 02:42:55
  TRACK 126 AUDIO
    TITLE "0:"
    INDEX 01 02:44:05
  TRACK 127 AUDIO
    TITLE "30:cjc123_1038"
    INDEX 01 02:44:15
  TRACK 128 AUDIO
    TITLE "0:"
    INDEX 01 02:45:24
  TRACK 129 AUDIO
    TITLE "31:cjc123_1039"
    INDEX 01 02:45:71
  TRACK 130 AUDIO
    TITLE "0:"
    INDEX 01 02:50:47
  TRACK 131 AUDIO
    TITLE "32:cjc123_1040"
    INDEX 01 02:50:72
  TRACK 132 AUDIO
    TITLE "0:"
    INDEX 01 02:54:51
  TRACK 133 AUDIO
    TITLE "28:cjc123_1041"
    INDEX 01 02:55:25
  TRACK 134 AUDIO
    TITLE "0:"
    INDEX 01 02:56:22
  TRACK 135 AUDIO
    TITLE "29:cjc123_1042"
    INDEX 01 02:56:53
  TRACK 136 AUDIO
    TITLE "0:"
    INDEX 01 02:58:11
  TRACK 137 AUDIO
    TITLE "30:cjc123_1043"
    INDEX 01 02:58:15
  TRACK 138 AUDIO
    TITLE "0:"
    INDEX 01 02:59:16
  TRACK 139 AUDIO
    TITLE "31:cjc123_1044"
    INDEX 01 03:00:00
  TRACK 140 AUDIO
    TITLE "0:"
    INDEX 01 03:04:27
  TRACK 141 AUDIO
    TITLE "32:cjc123_1045"
    INDEX 01 03:05:21
  TRACK 142 AUDIO
    TITLE "0:"
    INDEX 01 03:09:01
  TRACK 143 AUDIO
    TITLE "28:cjc123_1046"
    INDEX 01 03:09:58
  TRACK 144 AUDIO
    TITLE "0:"
    INDEX 01 03:11:00
  TRACK 145 AUDIO
    TITLE "29:cjc123_1047"
    INDEX 01 03:11:08
  TRACK 146 AUDIO
    TITLE "0:"
    INDEX 01 03:12:52
  TRACK 147 AUDIO
    TITLE "30:cjc123_1048"
    INDEX 01 03:12:60
  TRACK 148 AUDIO
    TITLE "0:"
    INDEX 01 03:13:69
  TRACK 149 AUDIO
    TITLE "31:cjc123_1049"
    INDEX 01 03:14:51
  TRACK 150 AUDIO
    TITLE "0:"
    INDEX 01 03:18:41
  TRACK 151 AUDIO
    TITLE "32:cjc123_1050"
    INDEX 01 03:19:05
  TRACK 152 AUDIO
    TITLE "0:"
    INDEX 01 03:23:50
